<?xml version="1.0" encoding="utf-8"?>
<!-- Generator: Adobe Illustrator 25.0.0, SVG Export Plug-In . SVG Version: 6.00 Build 0)  -->
<svg version="1.1" id="Слой_1" xmlns="http://www.w3.org/2000/svg" xmlns:xLink="http://www.w3.org/1999/xLink" x="0px" y="0px"
	 viewBox="0 0 512 512" style="enable-background:new 0 0 512 512;" xml:space="preserve">
<style type="text/css">
	.st0{fill:url(#SVGID_1_);}
	.st1{fill:#FFFFFF;}
</style>
<g>
	<g>
		<linearGradient id="SVGID_1_" gradientUnits="userSpaceOnUse" x1="256" y1="0" x2="256" y2="512">
			<stop  offset="0" style="stop-color:#F27121"/>
			<stop  offset="0.5002" style="stop-color:#E94057"/>
			<stop  offset="1" style="stop-color:#842381"/>
		</linearGradient>
		<path class="st0" d="M477,512H35c-19.33,0-35-15.67-35-35V35C0,15.67,15.67,0,35,0h442c19.33,0,35,15.67,35,35v442
			C512,496.33,496.33,512,477,512z"/>
	</g>
	<g>
		<g>
			<path class="st1" d="M115.86,93.62c-1.15-2.67-3.84-4.4-6.86-4.4c0,0-0.01,0-0.01,0c-3.02,0-5.71,1.74-6.85,4.42
				c-0.02,0.04-0.04,0.09-0.05,0.13l-21.31,53.62c-1.2,3.03,0.38,6.42,3.54,7.58c0.72,0.26,1.45,0.39,2.18,0.39
				c2.47,0,4.8-1.44,5.73-3.78l3.8-9.57h25.78l3.76,9.56c1.19,3.03,4.73,4.57,7.9,3.42c3.17-1.14,4.76-4.53,3.57-7.57l-21.12-53.62
				C115.91,93.72,115.88,93.67,115.86,93.62z M100.7,130.25l8.28-20.84l8.21,20.84H100.7z"/>
			<path class="st1" d="M441.29,381.83c-0.2,3.24,2.37,6.02,5.74,6.22c0.13,0.01,0.25,0.01,0.38,0.01c3.21,0,5.91-2.4,6.11-5.52
				c3.87-61.1,4.19-123.09,0.97-184.23c0,0,0-0.01,0-0.01c-0.26-5.01-3.57-23.75-35.05-54.49c-9.52-9.3-19.48-17.38-28.8-23.38
				c-10.69-6.88-19.87-10.58-27.31-11.03c-0.05,0-0.09-0.01-0.14-0.01c-2.53-0.14-5.06-0.25-7.6-0.38
				c-20.21-24.52-51.77-49.76-71.38-50.83c-0.02,0-0.04,0-0.06,0c-39.21-2.14-78.97-2.4-118.18-0.75c-3.38,0.14-6,2.88-5.85,6.12
				c0.15,3.24,3.02,5.75,6.39,5.61c36.89-1.55,74.27-1.38,111.2,0.47c-0.03,12.64,0.32,25.41,1.05,38.08
				c-37.67,0.54-75.39,2.8-112.82,6.77c-12.65,1.34-22.64,11.16-23.75,23.35c-7.6,83.94-8.53,168.91-2.79,253.11
				c-16.9-1.08-34.02-2.54-50.97-4.33c-6.94-0.74-12.42-6.08-13.01-12.7c-8.61-94.96-8.61-191.28-0.01-286.27
				c0.6-6.62,6.03-11.96,12.89-12.69c17.91-1.9,36.12-3.43,54.12-4.54c3.38-0.21,5.94-3,5.72-6.24c-0.22-3.24-3.13-5.69-6.51-5.48
				c-18.19,1.12-36.58,2.67-54.68,4.59c-12.65,1.34-22.64,11.16-23.75,23.34c-8.67,95.67-8.67,192.66,0.01,288.3
				c1.09,12.18,11.13,22,23.87,23.36c17.69,1.88,35.55,3.38,53.18,4.48c0.59,7.8,1.23,15.59,1.94,23.37
				c1.1,12.18,11.14,22,23.88,23.36c43.17,4.59,86.65,6.88,130.12,6.88s86.95-2.29,130.12-6.88c12.73-1.36,22.77-11.18,23.87-23.36
				c0.63-6.95,1.21-13.79,1.71-20.32c0.25-3.23-2.28-6.05-5.66-6.29c-3.38-0.24-6.31,2.19-6.56,5.42c-0.5,6.48-1.07,13.27-1.7,20.17
				c-0.6,6.62-6.08,11.96-13.02,12.7c-85.45,9.08-172.1,9.08-257.54,0c-6.94-0.74-12.42-6.08-13.02-12.7
				c-8.6-94.97-8.6-191.29,0-286.26c0.6-6.63,6.03-11.97,12.9-12.7c62.86-6.68,126.55-8.46,189.41-5.33
				c-0.04,19.26,0.79,38.69,2.49,57.86c1.11,12.5,11.41,22.35,24.48,23.41c19.51,1.59,39.28,2.39,58.86,2.39
				C445.42,263.39,445.01,323.02,441.29,381.83L441.29,381.83z M291.03,107.58c-0.7-12.07-1.08-24.22-1.09-36.26
				c13.11,4.57,32.82,19.43,49.06,36.98C323.04,107.75,307.05,107.51,291.03,107.58z M384.7,190.39
				c-7.11-0.58-12.71-5.92-13.31-12.7c-1.62-18.27-2.45-36.79-2.46-55.16c10.95,3.79,26.7,14.8,41.76,29.5
				c15.1,14.74,26.36,30.1,30.17,40.71C422.17,192.7,403.31,191.91,384.7,190.39z"/>
			<path class="st1" d="M195.22,147.93h-16.48c-3.38,0-6.13,2.63-6.13,5.87v25.04v0.04v29.3c0,1.56,0.65,3.06,1.8,4.16
				c1.15,1.1,2.7,1.71,4.32,1.71h0.03c0,0,15.16-0.06,19.34-0.06c11.8,0,21.4-9.2,21.4-20.51c0-6.75-3.42-12.74-8.68-16.48
				c2.25-3.01,3.59-6.7,3.59-10.68C214.4,156.18,205.79,147.93,195.22,147.93z M195.22,159.67c3.82,0,6.93,2.98,6.93,6.64
				c0,3.66-3.11,6.64-6.93,6.64c-1.22,0-3.52,0.01-6.03,0.01h-4.33v-13.3H195.22z M198.1,202.25c-2.42,0-8.52,0.02-13.24,0.04
				v-17.56c1.41-0.01,2.91-0.01,4.35-0.02h8.89c5.04,0,9.15,3.93,9.15,8.77S203.14,202.25,198.1,202.25z"/>
			<path class="st1" d="M382.2,256.19H213.38c-3.38,0-6.13,2.63-6.13,5.87s2.74,5.87,6.13,5.87H382.2c3.38,0,6.13-2.63,6.13-5.87
				S385.58,256.19,382.2,256.19L382.2,256.19z"/>
			<path class="st1" d="M382.2,300.13H213.38c-3.38,0-6.13,2.63-6.13,5.87s2.74,5.87,6.13,5.87H382.2c3.38,0,6.13-2.63,6.13-5.87
				S385.58,300.13,382.2,300.13z"/>
			<path class="st1" d="M382.2,344.07H213.38c-3.38,0-6.13,2.63-6.13,5.87s2.74,5.87,6.13,5.87H382.2c3.38,0,6.13-2.63,6.13-5.87
				S385.58,344.07,382.2,344.07z"/>
			<path class="st1" d="M382.2,388.02H213.38c-3.38,0-6.13,2.63-6.13,5.87s2.74,5.87,6.13,5.87H382.2c3.38,0,6.13-2.63,6.13-5.87
				S385.58,388.02,382.2,388.02z"/>
		</g>
	</g>
</g>
</svg>
